{
  "accessors": [
    {
      "bufferView": 2,
      "componentType": 5126,
      "count": 19278,
      "max": [
        6.73949670791626,
        2.408506155014038,
        21.060800552368164
      ],
      "min": [
        -6.739162921905518,
        -1.8336015939712524,
        0.12652957439422607
      ],
      "type": "VEC3"
    },
    {
      "bufferView": 2,
      "byteOffset": 231336,
      "componentType": 5126,
      "count": 19278,
      "max": [
        0.999992311000824,
        0.9999608993530273,
        0.9996215105056763
      ],
      "min": [
        -0.9999922513961792,
        -0.9999938607215881,
        -0.9999998211860657
      ],
      "type": "VEC3"
    },
    {
      "bufferView": 1,
      "componentType": 5126,
      "count": 19278,
      "max": [
        0.9995607137680054,
        0.9995607137680054
      ],
      "min": [
        0.0004392818082123995,
        0.00043933308916166425
      ],
      "type": "VEC2"
    },
    {
      "bufferView": 0,
      "componentType": 5125,
      "count": 59982,
      "type": "SCALAR"
    }
  ],
  "asset": {
    "extras": {
      "author": "45646712 (https://sketchfab.com/45646712)",
      "license": "CC-BY-4.0 (http://creativecommons.org/licenses/by/4.0/)",
      "source": "https://sketchfab.com/3d-models/kizuna-5d6fb8c88c7a4a5582481302f93f6118",
      "title": "kizuna"
    },
    "generator": "Sketchfab-13.17.0",
    "version": "2.0"
  },
  "bufferViews": [
    {
      "buffer": 0,
      "byteLength": 239928,
      "name": "floatBufferViews",
      "target": 34963
    },
    {
      "buffer": 0,
      "byteLength": 154224,
      "byteOffset": 239928,
      "byteStride": 8,
      "name": "floatBufferViews",
      "target": 34962
    },
    {
      "buffer": 0,
      "byteLength": 462672,
      "byteOffset": 394152,
      "byteStride": 12,
      "name": "floatBufferViews",
      "target": 34962
    }
  ],
  "buffers": [
    {
      "byteLength": 856824,
      "uri": "scene.bin"
    }
  ],
  "images": [
    {
      "uri": "textures/Material_25_baseColor.png"
    }
  ],
  "materials": [
    {
      "doubleSided": true,
      "name": "Material_25",
      "pbrMetallicRoughness": {
        "baseColorTexture": {
          "index": 0
        },
        "metallicFactor": 0.0
      }
    }
  ],
  "meshes": [
    {
      "name": "kizuna_Material #25_0",
      "primitives": [
        {
          "attributes": {
            "NORMAL": 1,
            "POSITION": 0,
            "TEXCOORD_0": 2
          },
          "indices": 3,
          "material": 0,
          "mode": 4
        }
      ]
    }
  ],
  "nodes": [
    {
      "children": [
        1
      ],
      "matrix": [
        1.0,
        0.0,
        0.0,
        0.0,
        0.0,
        2.220446049250313e-16,
        -1.0,
        0.0,
        0.0,
        1.0,
        2.220446049250313e-16,
        0.0,
        0.0,
        0.0,
        0.0,
        1.0
      ],
      "name": "Sketchfab_model"
    },
    {
      "children": [
        2
      ],
      "matrix": [
        0.02539999969303608,
        0.0,
        0.0,
        0.0,
        0.0,
        0.0,
        0.02539999969303608,
        0.0,
        0.0,
        -0.02539999969303608,
        0.0,
        0.0,
        0.0,
        0.0,
        0.0,
        1.0
      ],
      "name": "9895561624bb490785bdc337dfa22825.fbx"
    },
    {
      "children": [
        3
      ],
      "name": "RootNode"
    },
    {
      "children": [
        4
      ],
      "matrix": [
        39.370079040527344,
        0.0,
        0.0,
        0.0,
        0.0,
        -6.414199561671394e-06,
        -39.370079040526825,
        0.0,
        0.0,
        39.370079040526825,
        -6.414199561671394e-06,
        0.0,
        0.0,
        0.0,
        0.0,
        1.0
      ],
      "name": "kizuna"
    },
    {
      "mesh": 0,
      "name": "kizuna_Material #25_0"
    }
  ],
  "samplers": [
    {
      "magFilter": 9729,
      "minFilter": 9987,
      "wrapS": 10497,
      "wrapT": 10497
    }
  ],
  "scene": 0,
  "scenes": [
    {
      "name": "Sketchfab_Scene",
      "nodes": [
        0
      ]
    }
  ],
  "textures": [
    {
      "sampler": 0,
      "source": 0
    }
  ]
}
